# xmcd
#
# Track frame offsets:
#	182
#	18425
#	40652
#	61952
#	79840
#	98345
#	118415
#	139840
#	159322
#	178030
#	199040
#
# Disc length: 3008 seconds
# Revision: 10
# Processed by: cddbd v1.5.2PL0 Copyright (c) Steve Scherf et al.
# Submitted via: dBpowerAMP V12.0
#
DISCID=890bbe0b
DTITLE=Robert Cray Band, The - Midnight Stroll [dBP]
DYEAR=1990
DGENRE=Blues
TTITLE0=The Forecast (Calls For Pain)
TTITLE1=These Things
TTITLE2=My Problem
TTITLE3=Labor of Love
TTITLE4=Bouncin' Back
TTITLE5=Consequences
TTITLE6=The Things You Do To Me
TTITLE7=Walk Around Time
TTITLE8=Move a Mountain
TTITLE9=Holdin' Court
TTITLE10=Midnight Stroll
EXTD=
EXTT0=
EXTT1=
EXTT2=
EXTT3=
EXTT4=
EXTT5=
EXTT6=
EXTT7=
EXTT8=
EXTT9=
EXTT10=
PLAYORDER=
